<svg data-v-423bf9ae="" xmlns="http://www.w3.org/2000/svg" viewBox="0 0 799 90" class="iconLeft"><!----><!----><!----><g data-v-423bf9ae="" id="ad38613a-da3d-4d47-8b21-f7f5ddd1a02c" fill="#04291D" transform="matrix(5.7747832548013,0,0,5.7747832548013,167.24702101284703,-5.615975118876534)"><path d="M1.12 13.78L1.95 13.78L1.95 7.76C1.95 7.08 1.88 6.06 1.83 5.42L1.88 5.42L2.53 7.18L4.24 11.26L4.79 11.26L6.48 7.18L7.08 5.42L7.14 5.42C7.11 6.06 7.06 7.08 7.06 7.76L7.06 13.78L7.90 13.78L7.90 4.54L6.78 4.54L5.11 8.71L4.55 10.29L4.49 10.29L3.89 8.71L2.23 4.54L1.12 4.54ZM12.57 13.96C13.57 13.96 14.57 13.37 15.34 12.73L15.39 12.73L15.46 13.78L16.13 13.78L16.13 9.27C16.13 7.67 15.33 6.47 13.51 6.47C12.32 6.47 11.34 7.08 10.85 7.50L11.19 8.11C11.68 7.67 12.43 7.17 13.38 7.17C14.84 7.17 15.30 8.19 15.32 9.28C11.72 9.62 10.26 10.37 10.26 12.00C10.26 13.30 11.35 13.96 12.57 13.96ZM12.75 13.29C11.90 13.29 11.06 12.89 11.06 11.94C11.06 10.85 12.08 10.18 15.32 9.87L15.32 12.05C14.43 12.87 13.58 13.29 12.75 13.29ZM19.05 13.78L19.87 13.78L19.87 11.77L21.70 9.91L24.46 13.78L25.40 13.78L22.23 9.42L24.98 6.64L24.01 6.64L19.92 10.79L19.87 10.79L19.87 3.57L19.05 3.57ZM30.44 13.96C31.60 13.96 32.38 13.54 33.01 13.12L32.70 12.53C32.06 12.98 31.39 13.26 30.52 13.26C28.87 13.26 27.72 12.07 27.71 10.36L33.26 10.36C33.29 10.18 33.29 9.98 33.29 9.79C33.29 7.74 32.13 6.47 30.25 6.47C28.52 6.47 26.85 7.91 26.85 10.22C26.85 12.56 28.48 13.96 30.44 13.96ZM27.69 9.73C27.87 8.12 29.02 7.13 30.25 7.13C31.64 7.13 32.52 8.04 32.52 9.73ZM43.74 13.78L44.56 13.78L44.56 7.76C44.56 7.08 44.49 6.06 44.45 5.42L44.49 5.42L45.15 7.18L46.86 11.26L47.40 11.26L49.10 7.18L49.70 5.42L49.76 5.42C49.73 6.06 49.67 7.08 49.67 7.76L49.67 13.78L50.51 13.78L50.51 4.54L49.39 4.54L47.73 8.71L47.17 10.29L47.11 10.29L46.51 8.71L44.84 4.54L43.74 4.54ZM55.83 13.96C57.61 13.96 59.12 12.59 59.12 10.22C59.12 7.83 57.61 6.47 55.83 6.47C54.05 6.47 52.54 7.83 52.54 10.22C52.54 12.59 54.05 13.96 55.83 13.96ZM55.83 13.27C54.40 13.27 53.38 12.04 53.38 10.22C53.38 8.40 54.40 7.15 55.83 7.15C57.26 7.15 58.28 8.40 58.28 10.22C58.28 12.04 57.26 13.27 55.83 13.27ZM61.45 13.78L62.26 13.78L62.26 8.71C63.17 7.67 63.78 7.18 64.68 7.18C65.94 7.18 66.46 7.92 66.46 9.44L66.46 13.78L67.27 13.78L67.27 9.32C67.27 7.42 66.51 6.47 64.88 6.47C63.81 6.47 63.01 7.10 62.26 7.98L62.20 7.98L62.12 6.64L61.45 6.64ZM69.40 13.78L70.20 13.78L70.20 8.46C70.60 7.60 70.97 7.18 71.51 7.18C72.11 7.18 72.42 7.69 72.42 8.71L72.42 13.78L73.11 13.78L73.11 8.46C73.51 7.60 73.88 7.18 74.45 7.18C75.04 7.18 75.33 7.69 75.33 8.71L75.33 13.78L76.13 13.78L76.13 8.62C76.13 7.20 75.59 6.47 74.66 6.47C73.92 6.47 73.49 6.93 73.02 7.73C72.86 6.87 72.42 6.47 71.71 6.47C70.95 6.47 70.53 6.92 70.17 7.60L70.13 7.60L70.06 6.64L69.40 6.64ZM81.03 13.96C82.81 13.96 84.32 12.59 84.32 10.22C84.32 7.83 82.81 6.47 81.03 6.47C79.25 6.47 77.74 7.83 77.74 10.22C77.74 12.59 79.25 13.96 81.03 13.96ZM81.03 13.27C79.60 13.27 78.58 12.04 78.58 10.22C78.58 8.40 79.60 7.15 81.03 7.15C82.46 7.15 83.48 8.40 83.48 10.22C83.48 12.04 82.46 13.27 81.03 13.27ZM88.80 13.96C89.87 13.96 90.69 13.31 91.41 12.43L91.46 12.43L91.53 13.78L92.20 13.78L92.20 6.64L91.39 6.64L91.39 11.70C90.52 12.75 89.88 13.26 89.00 13.26C87.72 13.26 87.22 12.52 87.22 10.98L87.22 6.64L86.39 6.64L86.39 11.09C86.39 13.01 87.16 13.96 88.80 13.96ZM99.16 13.96C99.85 13.96 100.65 13.76 101.26 13.51L101.05 12.91C100.55 13.13 100.00 13.26 99.32 13.26C97.89 13.26 97.50 12.47 97.50 11.12L97.50 7.32L101.00 7.32L101.00 6.64L97.50 6.64L97.50 3.89L96.71 4.54L96.71 6.64L94.71 6.64L94.71 7.32L96.68 7.32L96.68 11.09C96.68 12.80 97.27 13.96 99.16 13.96ZM103.45 13.78L104.26 13.78L104.26 8.71C105.17 7.67 105.78 7.18 106.68 7.18C107.94 7.18 108.46 7.92 108.46 9.44L108.46 13.78L109.27 13.78L109.27 9.32C109.27 7.42 108.51 6.47 106.88 6.47C105.81 6.47 105.01 7.10 104.22 8.01L104.26 6.17L104.26 3.57L103.45 3.57Z"></path></g><defs data-v-423bf9ae=""><linearGradient data-v-423bf9ae="" gradientTransform="rotate(25)" id="4c0c55c5-b3d2-4d6f-808b-506188049c79" x1="0%" y1="0%" x2="100%" y2="0%"><stop data-v-423bf9ae="" offset="0%" style="stop-color: rgb(1, 105, 90); stop-opacity: 1;"></stop><stop data-v-423bf9ae="" offset="100%" style="stop-color: rgb(44, 194, 111); stop-opacity: 1;"></stop></linearGradient></defs><g data-v-423bf9ae="" id="50d09d4d-3de9-44f1-9253-34d70e775308" transform="matrix(4.803586662404586,0,0,4.803586662404586,0.14261340152661717,-31.22538662899096)" stroke="none" fill="url(#4c0c55c5-b3d2-4d6f-808b-506188049c79)"><path d="M16 19.586l7.496-12.954H8.504zM7.496 12.414L0 25.368h14.992zM24.504 12.414l-7.496 12.954H32z"></path></g><!----></svg>